<?xml version="1.0" standalone="no"?><!DOCTYPE svg PUBLIC "-//W3C//DTD SVG 1.1//EN" "http://www.w3.org/Graphics/SVG/1.1/DTD/svg11.dtd"><svg t="1698725752168" class="icon" viewBox="0 0 1024 1024" version="1.1" xmlns="http://www.w3.org/2000/svg" p-id="6794" xmlns:xlink="http://www.w3.org/1999/xlink" width="24" height="24"><path d="M61.370182 253.858909a38.074182 38.074182 0 0 0 38.074182-38.027636V100.352c0-12.706909 10.333091-23.04 22.993454-23.04h115.479273a38.074182 38.074182 0 1 0 0-76.148364H90.507636C53.504 1.163636 23.296 31.371636 23.296 68.421818v147.456c0 20.992 17.035636 38.027636 38.074182 38.027637zM237.870545 901.585455h-115.432727a23.086545 23.086545 0 0 1-23.04-22.993455v-115.479273a38.074182 38.074182 0 1 0-76.148363 0v147.409455c0 37.003636 30.208 67.211636 67.211636 67.211636H237.870545a38.074182 38.074182 0 1 0 0-76.148363z m723.828364-176.54691a38.074182 38.074182 0 0 0-38.074182 38.074182v115.432728a23.086545 23.086545 0 0 1-22.993454 23.04h-115.525818a38.074182 38.074182 0 1 0 0 76.148363h147.456c37.003636 0 67.211636-30.208 67.211636-67.211636v-147.409455a38.074182 38.074182 0 0 0-38.074182-38.074182zM932.608 1.210182h-147.456a38.074182 38.074182 0 1 0 0 76.101818h115.525818c12.660364 0 22.993455 10.333091 22.993455 23.04v115.432727a38.074182 38.074182 0 1 0 76.148363 0V68.421818c0-37.003636-30.208-67.211636-67.211636-67.211636z m-728.901818 247.621818v481.186909c0 37.003636 30.254545 67.211636 67.258182 67.211636h481.186909c37.003636 0 67.211636-30.208 67.211636-67.211636V248.832c0-37.003636-30.208-67.211636-67.211636-67.211636H270.964364c-37.003636 0-67.211636 30.208-67.211637 67.211636zM276.037818 701.905455V276.945455c0-12.660364 10.333091-23.04 23.04-23.04h425.053091c12.660364 0 23.04 10.379636 23.04 23.04v425.05309a23.086545 23.086545 0 0 1-23.04 23.04H299.031273a23.086545 23.086545 0 0 1-23.04-23.04z" fill="#c7ecee" p-id="6795"></path></svg>