<?xml version="1.0" standalone="no"?><!DOCTYPE svg PUBLIC "-//W3C//DTD SVG 1.1//EN" "http://www.w3.org/Graphics/SVG/1.1/DTD/svg11.dtd"><svg t="1699867753205" class="icon" viewBox="0 0 1024 1024" version="1.1" xmlns="http://www.w3.org/2000/svg" p-id="5973" xmlns:xlink="http://www.w3.org/1999/xlink" width="24" height="24"><path d="M513.6896 513.28m-458.9056 0a458.9056 458.9056 0 1 0 917.8112 0 458.9056 458.9056 0 1 0-917.8112 0Z" fill="#CAF28E" p-id="5974"></path><path d="M647.1168 264.6528A459.1616 459.1616 0 0 0 207.3088 855.04a459.008 459.008 0 0 0 746.1888-473.088 457.216 457.216 0 0 0-306.3808-117.2992z" fill="#95D245" p-id="5975"></path><path d="M718.6944 293.2224H337.92a89.4976 89.4976 0 0 0-88.6784 90.368V696.32A89.4976 89.4976 0 0 0 337.92 786.7904h380.7744A89.5488 89.5488 0 0 0 807.3728 696.32V383.5904a89.5488 89.5488 0 0 0-88.6784-90.368z m-325.4272 81.92a73.2672 73.2672 0 1 1-71.68 73.2672 72.6528 72.6528 0 0 1 71.68-73.3184zM768 555.2128a22.5792 22.5792 0 0 1-30.1056 11.3152c-64-30.1568-121.4976-33.0752-170.8032-8.6528-55.9616 27.6992-91.8528 86.6304-102.4 132.7104a22.9376 22.9376 0 0 1-16.7424 17.1008 20.7872 20.7872 0 0 1-5.12 0.6656 22.5792 22.5792 0 0 1-17.8688-8.0896c-44.2368-52.7872-112.896-47.3088-113.5616-47.2576a23.0912 23.0912 0 0 1-4.2496-46.08 191.744 191.744 0 0 1 124.8256 36.9152c20.48-48.5376 59.8016-100.2496 115.0464-127.5904 61.44-30.3616 133.7856-27.4944 209.92 8.2432a23.296 23.296 0 0 1 11.0592 30.72z" fill="#6C992D" p-id="5976"></path><path d="M393.2672 475.392a27.0848 27.0848 0 1 0-26.5728-27.0336 26.8288 26.8288 0 0 0 26.5728 27.0336z" fill="#6C992D" p-id="5977"></path><path d="M694.6816 269.568H328.96a85.1456 85.1456 0 0 0-85.1968 85.1456v294.7072a85.1968 85.1968 0 0 0 85.1968 85.1968h365.7216a85.1456 85.1456 0 0 0 85.1456-85.1968V354.7136a85.0944 85.0944 0 0 0-85.1456-85.1456zM382.1056 346.7264a69.0176 69.0176 0 1 1-69.0176 68.9664 69.0688 69.0688 0 0 1 69.0176-68.9664z m359.7312 169.6768a21.7088 21.7088 0 0 1-28.8768 10.6496c-61.44-28.416-116.6848-31.1808-163.84-8.1408C495.104 545.024 460.8 600.5248 450.56 643.9424a21.7088 21.7088 0 0 1-37.6832 9.1136c-42.496-49.7152-108.4416-44.544-109.056-44.4928a21.76 21.76 0 0 1-4.096-43.3152c3.072-0.3072 65.8432-5.7344 119.8592 34.7648 19.6096-45.7216 57.4464-94.464 110.5408-120.2176 58.8288-28.6208 128.4608-25.9072 201.3184 7.7824a21.7088 21.7088 0 0 1 10.3936 28.8256z" fill="#FFFFFF" p-id="5978"></path><path d="M382.1056 441.1904a25.6 25.6 0 1 0-25.6-25.6 25.6 25.6 0 0 0 25.6 25.6z" fill="#FFFFFF" p-id="5979"></path><path d="M512 639.6928A161.7408 161.7408 0 0 0 492.7488 563.2 200.9088 200.9088 0 0 0 450.56 643.9424a21.7088 21.7088 0 0 1-37.6832 9.1136c-42.496-49.7152-108.4416-44.544-109.056-44.4928a21.76 21.76 0 0 1-4.096-43.3152c3.072-0.3072 65.8432-5.7344 119.8592 34.7648A256 256 0 0 1 466.7392 527.36a162.56 162.56 0 0 0-71.9872-43.8272 68.5568 68.5568 0 0 1-44.1856-6.5024h-1.4336a162.048 162.048 0 0 0-105.3696 38.7584v133.6832a85.1968 85.1968 0 0 0 85.1968 85.1968H481.28a162.1504 162.1504 0 0 0 30.72-94.976z" fill="#E5FFB3" p-id="5980"></path></svg>