<?xml version="1.0" standalone="no"?><!DOCTYPE svg PUBLIC "-//W3C//DTD SVG 1.1//EN" "http://www.w3.org/Graphics/SVG/1.1/DTD/svg11.dtd"><svg t="1699869079431" class="icon" viewBox="0 0 1024 1024" version="1.1" xmlns="http://www.w3.org/2000/svg" p-id="15402" xmlns:xlink="http://www.w3.org/1999/xlink" width="24" height="24"><path d="M172.5 64.5H722l173.3 174.8v675.6c0 23.5-19 42.5-42.5 42.5H172.5c-23.5 0-42.5-19-42.5-42.5V107c0-11.3 4.5-22.1 12.5-30.1 7.9-7.9 18.7-12.4 30-12.4z m0 0" fill="#009EFF" p-id="15403"></path><path d="M725.3 64.5l170.1 170.1H725.3V64.5z m0 0" fill="#69CDFF" p-id="15404"></path><path d="M619 447.2l170 276.4H448.9L619 447.2z m0 0M321.3 404.7c0 15.2 8.1 29.2 21.3 36.8 13.2 7.6 29.4 7.6 42.5 0 13.2-7.6 21.3-21.6 21.3-36.8 0-15.2-8.1-29.2-21.3-36.8-13.2-7.6-29.4-7.6-42.5 0-13.2 7.5-21.3 21.6-21.3 36.8z m0 0" fill="#FFFFFF" p-id="15405"></path><path d="M385.1 511l106.3 212.6H278.8L385.1 511z m0 0" fill="#FFFFFF" p-id="15406"></path><path d="M561 479c7.7 0 7.7-12 0-12s-7.7 12 0 12z" fill="#FF6648" p-id="15407"></path></svg>