<?xml version="1.0" standalone="no"?><!DOCTYPE svg PUBLIC "-//W3C//DTD SVG 1.1//EN" "http://www.w3.org/Graphics/SVG/1.1/DTD/svg11.dtd"><svg t="1699870672934" class="icon" viewBox="0 0 1251 1024" version="1.1" xmlns="http://www.w3.org/2000/svg" p-id="17240" xmlns:xlink="http://www.w3.org/1999/xlink" width="29.3203125" height="24"><path d="M153.6 631.466667h938.666667V204.8H153.6v426.666667zM1251.555556 824.888889H0v-682.666667h1154.844444c51.2 0 96.711111 39.822222 96.711112 85.333334v597.333333z m-472.177778-682.666667C779.377778 62.577778 711.111111 0 625.777778 0H0v142.222222h779.377778z" fill="#FFA000" p-id="17241"></path><path d="M1251.555556 915.911111V358.4c0-39.822222-34.133333-68.266667-79.644445-68.266667H79.644444C34.133333 290.133333 0 324.266667 0 358.4V910.222222c0 51.2 45.511111 85.333333 96.711111 85.333334h1058.133333c51.2 5.688889 96.711111-34.133333 96.711112-79.644445" fill="#FFCA28" p-id="17242"></path></svg>